<svg width="20" height="20" viewBox="0 0 20 20" fill="none" xmlns="http://www.w3.org/2000/svg">
<g id="&#229;&#174;&#161;&#230;&#160;&#184;">
<path id="&#229;&#189;&#162;&#231;&#138;&#182;&#231;&#187;&#147;&#229;&#144;&#136; (Stroke)" fill-rule="evenodd" clip-rule="evenodd" d="M10.8607 8.06641L11.7422 7.20955C12.2116 6.75332 12.4999 6.12014 12.4999 5.41667C12.4999 4.03595 11.3806 2.91667 9.99992 2.91667C8.61921 2.91667 7.49992 4.03595 7.49992 5.41667C7.49992 6.12014 7.78829 6.75332 8.25763 7.20955L9.13911 8.06641L7.30368 11.6667H12.6962L10.8607 8.06641ZM15.4166 13.3333H4.58325L7.09592 8.40463C6.3171 7.64756 5.83325 6.58862 5.83325 5.41667C5.83325 3.11548 7.69873 1.25 9.99992 1.25C12.3011 1.25 14.1666 3.11548 14.1666 5.41667C14.1666 6.58862 13.6827 7.64756 12.9039 8.40463L15.4166 13.3333Z" fill="#939393"/>
<path id="Rectangle 188 (Stroke)" fill-rule="evenodd" clip-rule="evenodd" d="M2.08325 14.1665C2.08325 12.7858 3.20254 11.6665 4.58325 11.6665H15.4166C16.7973 11.6665 17.9166 12.7858 17.9166 14.1665V17.9165H2.08325V14.1665ZM4.58325 13.3332C4.12301 13.3332 3.74992 13.7063 3.74992 14.1665V16.2498H16.2499V14.1665C16.2499 13.7063 15.8768 13.3332 15.4166 13.3332H4.58325Z" fill="#939393"/>
</g>
</svg>
